<svg width="20" height="20" viewBox="0 0 20 20" fill="none" xmlns="http://www.w3.org/2000/svg">
<path d="M19.3156 5.41238L14.2203 0.117891C14.1478 0.0425781 14.0477 0 13.9432 0H6.34901C5.49913 0 4.80769 0.691172 4.80769 1.5407V6.92309H1.73007C1.09421 6.92309 0.576904 7.44023 0.576904 8.07594V13.8472C0.576904 14.4829 1.09421 15 1.73007 15H4.80769V18.462C4.80769 19.31 5.49913 20 6.34901 20H17.8817C18.7316 20 19.4231 19.3104 19.4231 18.4629V5.6791C19.4231 5.57965 19.3845 5.48406 19.3156 5.41238ZM14.0385 1.03832L18.2212 5.38461H14.0385V1.03832ZM1.73007 14.2308C1.51835 14.2308 1.34616 14.0587 1.34616 13.8472V8.07594C1.34616 7.86441 1.51839 7.6923 1.73007 7.6923H12.1161C12.3278 7.6923 12.5 7.86441 12.5 8.07594V13.8472C12.5 14.0587 12.3278 14.2308 12.1161 14.2308H1.73007ZM18.6538 18.4629C18.6538 18.8863 18.3074 19.2308 17.8817 19.2308H6.34901C5.92327 19.2308 5.5769 18.8859 5.5769 18.462V15H12.1161C12.7519 15 13.2692 14.4829 13.2692 13.8472V8.07594C13.2692 7.44023 12.7519 6.92309 12.1161 6.92309H5.5769V1.5407C5.5769 1.11527 5.92327 0.769219 6.34901 0.769219H13.2692V5.76922C13.2692 5.98164 13.4414 6.15383 13.6538 6.15383H18.6538V18.4629Z" fill="#FFE81E"/>
<path d="M5.17519 9.76152C5.04749 9.5955 4.88898 9.48769 4.69968 9.43812C4.57648 9.40507 4.31207 9.38855 3.9064 9.38855H2.83594V12.6923H3.50301V11.4461H3.93797C4.23996 11.4461 4.47058 11.4303 4.62984 11.3987C4.74703 11.3732 4.86234 11.321 4.97577 11.2421C5.08921 11.1632 5.18273 11.0547 5.25636 10.9165C5.32999 10.7783 5.36679 10.6077 5.36679 10.4049C5.36675 10.142 5.30288 9.92753 5.17519 9.76152ZM4.6039 10.6709C4.55359 10.7445 4.4841 10.7985 4.39542 10.8331C4.30675 10.8677 4.13101 10.885 3.86808 10.885H3.50301V9.94746H3.82527C4.06566 9.94746 4.22566 9.95496 4.30527 9.97C4.41343 9.98953 4.50285 10.0384 4.57343 10.1165C4.64406 10.1946 4.67937 10.2938 4.67937 10.4139C4.67941 10.5116 4.65421 10.5972 4.6039 10.6709Z" fill="#FFE81E"/>
<path d="M8.57363 10.2911C8.50152 10.08 8.39632 9.90164 8.25812 9.75589C8.11992 9.61015 7.95386 9.50875 7.76007 9.45164C7.61586 9.40957 7.40625 9.38855 7.13133 9.38855H5.91211V12.6923H7.16738C7.41379 12.6923 7.61058 12.6691 7.75781 12.6225C7.95464 12.5594 8.11089 12.4715 8.22656 12.3588C8.3798 12.21 8.49773 12.0155 8.58038 11.7751C8.648 11.5783 8.68179 11.3439 8.68179 11.072C8.68179 10.7625 8.64574 10.5022 8.57363 10.2911ZM7.92457 11.6478C7.87949 11.7958 7.82128 11.9021 7.74992 11.9667C7.67855 12.0313 7.58879 12.0771 7.48062 12.1041C7.398 12.1252 7.26351 12.1357 7.07722 12.1357H6.57918V9.94746H6.8789C7.15082 9.94746 7.3334 9.95796 7.42652 9.97902C7.55121 10.0061 7.65414 10.0579 7.73527 10.1345C7.8164 10.2112 7.87949 10.3178 7.92457 10.4545C7.96964 10.5912 7.99218 10.7873 7.99218 11.0427C7.99218 11.2981 7.96964 11.4998 7.92457 11.6478Z" fill="#FFE81E"/>
<path d="M11.5168 9.94746V9.38855H9.25195V12.6923H9.91902V11.2884H11.2982V10.7294H9.91902V9.94746H11.5168Z" fill="#FFE81E"/>
</svg>
